<svg id="Capa_1" enable-background="new 0 0 512 512" height="512" viewBox="0 0 512 512" width="512" xmlns="http://www.w3.org/2000/svg"><g><path d="m401.449 129.578h73.939v341.562h-73.939z" fill="#e7ecf6"/><path d="m455.514 129.578h19.874v341.562h-19.874z" fill="#d8e2f1"/><path d="m436.014 471.139h-343.345v-162.018c0-3.322 2.693-6.015 6.015-6.015h331.314c3.322 0 6.015 2.693 6.015 6.015v162.018z" fill="#80b4fb"/><path d="m429.999 303.105h-19.874c3.322 0 6.016 2.693 6.016 6.016v162.019h19.874v-162.019c-.001-3.323-2.694-6.016-6.016-6.016z" fill="#61a2f9"/><path d="m209.035 411.577h110.614v59.563h-110.614z" fill="#365e7d"/><path d="m300.547 411.577h19.102v59.562h-19.102z" fill="#2b4d66"/><path d="m135.732 336.799h257.22v36.339h-257.22z" fill="#d3effb"/><path d="m374.325 336.799h18.627v36.339h-18.627z" fill="#b1e4f9"/><path d="m166.151 40.86h118.032v262.245h-118.032z" fill="#e7ecf6"/><path d="m263.865 40.86h20.318v262.245h-20.318z" fill="#d8e2f1"/><path d="m401.449 229.384-64.426-64.426c-3.281-3.282-7.732-5.126-12.374-5.126h-40.466v35h33.217l84.049 84.049z" fill="#365e7d"/><path d="m384.479 261.911 16.969 16.969v-49.496l-16.969-16.969z" fill="#2b4d66"/><path d="m284.183 159.832h19.777v35h-19.777z" fill="#2b4d66"/><path d="m92.669 365.732h-22.32c-24.476 0-44.389 19.913-44.389 44.389v61.019h35v-61.019c0-5.177 4.212-9.389 9.389-9.389h22.32z" fill="#df6b57"/><path d="m74.136 365.732h18.533v35h-18.533z" fill="#dd544f"/><g><path d="m392.951 380.638c4.143 0 7.5-3.357 7.5-7.5v-36.338c0-4.143-3.357-7.5-7.5-7.5h-257.22c-4.143 0-7.5 3.357-7.5 7.5v36.338c0 4.143 3.357 7.5 7.5 7.5zm-93.492-15h-27.617v-21.338h27.617zm15-21.338h27.618v21.338h-27.618zm-57.617 21.338h-27.618v-21.338h27.618zm-42.618 0h-27.617v-21.338h27.617zm171.227 0h-28.374v-21.338h28.374zm-242.22-21.338h28.375v21.338h-28.375z"/><path d="m504.5 463.64h-21.612v-285.018h3.152c4.143 0 7.5-3.357 7.5-7.5s-3.357-7.5-7.5-7.5h-3.152v-26.544h3.152c4.143 0 7.5-3.357 7.5-7.5s-3.357-7.5-7.5-7.5c-12.322 0-81.25 0-95.244 0-4.143 0-7.5 3.357-7.5 7.5s3.357 7.5 7.5 7.5h3.152v26.544h-3.152c-4.143 0-7.5 3.357-7.5 7.5s3.357 7.5 7.5 7.5h3.152v32.654l-51.621-51.621c-4.721-4.723-10.999-7.323-17.678-7.323h-32.967v-59.909h4.355c4.143 0 7.5-3.357 7.5-7.5s-3.357-7.5-7.5-7.5h-4.355v-29.063h4.355c4.143 0 7.5-3.357 7.5-7.5s-3.357-7.5-7.5-7.5c-18.956 0-120.634 0-141.743 0-4.143 0-7.5 3.357-7.5 7.5s3.357 7.5 7.5 7.5h4.356v29.062h-4.356c-4.143 0-7.5 3.357-7.5 7.5s3.357 7.5 7.5 7.5h4.356v33.651c0 4.143 3.357 7.5 7.5 7.5s7.5-3.357 7.5-7.5v-33.65h103.031v203.183h-103.03v-139.545c0-4.143-3.357-7.5-7.5-7.5s-7.5 3.357-7.5 7.5v139.545h-28.75v-33.909h3.613c4.143 0 7.5-3.357 7.5-7.5s-3.357-7.5-7.5-7.5h-3.613v-2.552c0-4.143-3.357-7.5-7.5-7.5s-7.5 3.357-7.5 7.5v2.552h-3.612c-4.143 0-7.5 3.357-7.5 7.5s3.357 7.5 7.5 7.5h3.612v33.909h-16.216c-7.452 0-13.516 6.063-13.516 13.516v49.111h-14.819c-15.364 0-29.859 6.778-39.768 18.598-2.661 3.174-2.245 7.904.929 10.565 3.174 2.662 7.904 2.245 10.565-.929 7.052-8.41 17.356-13.234 28.273-13.234h14.819v20h-14.818c-9.312 0-16.889 7.576-16.889 16.889v53.519h-20v-53.352c0-4.143-3.357-7.5-7.5-7.5s-7.5 3.357-7.5 7.5v53.352h-10.961c-4.143 0-7.5 3.357-7.5 7.5s3.357 7.5 7.5 7.5h497c4.143 0 7.5-3.357 7.5-7.5s-3.357-7.501-7.5-7.501zm-330.849-386.217v-29.063h103.031v29.062h-103.031zm235.297 59.655h58.939v26.544h-58.939zm-84.299 30.254c2.671 0 5.182 1.04 7.07 2.93l62.229 62.229v28.283l-71.244-71.245c-1.407-1.406-3.314-2.196-5.304-2.196h-25.718v-20h32.967zm-256.188 242.789c0-1.041.848-1.889 1.889-1.889h14.819v55.407h-16.708zm31.708-99.516h227.501c4.143 0 7.5-3.357 7.5-7.5s-3.357-7.5-7.5-7.5h-35.987v-93.273h22.611l79.654 79.655v13.618h-36.291c-4.143 0-7.5 3.357-7.5 7.5s3.357 7.5 7.5 7.5h70.857v153.035h-101.366v-52.062c0-4.143-3.357-7.5-7.5-7.5h-110.614c-4.143 0-7.5 3.357-7.5 7.5v52.062h-101.365c0-6.594 0-146.346 0-153.035zm116.365 153.035v-44.562h95.614v44.562zm226.981 0v-154.519c0-7.452-6.063-13.516-13.516-13.516h-21.051c0-23.325 0-92.714 0-116.983h58.939v285.018z"/></g></g></svg>